<?xml version="1.0" encoding="utf-8"?>
<!DOCTYPE svg PUBLIC "-//W3C//DTD SVG 1.1//EN" "http://www.w3.org/Graphics/SVG/1.1/DTD/svg11.dtd">
<svg version="1.1" id="Layer_1" xmlns="http://www.w3.org/2000/svg" xmlns:xlink="http://www.w3.org/1999/xlink" x="0px" y="0px"
	 width="611.999px" height="172.889px" viewBox="0.001 309.556 611.999 172.889"
	 enable-background="new 0.001 309.556 611.999 172.889" xml:space="preserve">
<g>
	<path fill="#007AC2" d="M254.614,309.556v172.889h143.963V309.556H254.614z M355.849,429.849
		c-10.515,0-18.845-14.894-18.845-33.299c0-18.408,8.544-33.308,18.845-33.308c3.508,0,6.79,1.757,9.641,4.819v16.214
		c-1.537-3.062-3.728-4.815-6.353-4.815c-5.042,0-8.984,7.667-8.984,17.307c0,9.421,3.942,17.312,8.984,17.312
		c2.411,0,4.815-1.975,6.353-5.042v16.217C362.861,428.324,359.356,429.849,355.849,429.849z M376.007,384.275h-1.533
		c-6.137-46.01-56.972-43.822-59.819,5.916c11.611-4.602,17.964-13.583,24.104-23.003h2.634
		c-13.369,14.683-10.301,47.987,0.657,58.945l-2.848-0.22c-6.573-8.761-12.272-17.308-22.79-20.373l-1.097-0.22
		c1.977,17.748,10.304,39.884,24.98,66.176c-17.971-11.396-50.835-14.9-60.26-14.467c26.731-62.45,6.796-114.383-7.23-137.83
		c9.858,4.388,60.48,17.751,107.583,1.534C375.137,329.058,373.81,364.333,376.007,384.275z"/>
</g>
<g>
	<path fill="#ED1C2E" d="M459.707,352.504c-0.874,6.356-1.757,13.143-2.631,19.505c-4.152-1.314-9.857-1.971-13.803,0.66
		c-10.738,8.981-12.709,30.887-9.207,37.904c3.068,6.133,9.638,5.262,15.993,4.825c-1.968,8.54-2.41,19.932-2.624,19.715
		c-6.137,3.945-20.816,3.509-27.389-2.188c-12.492-11.611-12.052-28.702-9.424-44.482c2.851-12.703,7.666-26.075,19.722-33.745
		C438.458,350.311,450.072,347.906,459.707,352.504L459.707,352.504z"/>
</g>
<g>
	<path fill="#ED1C2E" d="M50.398,373.1c-0.214,0-16.437-0.22-16.868,0l-1.757,12.055h15.12c0.217,0-3.728,20.155-3.728,20.155h-14.9
		c0,0-5.036,30.46-5.256,30.46c0,0-23.227,0-23.007,0c0,0,12.929-82.832,12.929-83.049H53.47L50.398,373.1L50.398,373.1z"/>
</g>
<g>
	<path fill="#ED1C2E" d="M491.264,352.941l-12.488,82.832h-23.661c4.159-27.392,6.793-55.88,12.492-82.832
		C467.601,352.721,491.264,353.162,491.264,352.941L491.264,352.941z"/>
</g>
<g>
	<path fill="#ED1C2E" d="M547.582,352.941c0.21,0-2.852,21.259-2.852,20.822c0,0-12.263,0-12.485,0l-10.084,61.787H498.5
		l10.078-62.23h-13.58c1.095-6.133,1.969-12.712,3.502-20.379H547.582L547.582,352.941z"/>
</g>
<g>
	<polygon fill="#ED1C2E" points="551.964,353.162 576.941,352.941 579.139,375.074 588.116,353.381 612,353.381 587.016,399.611
		580.887,435.771 557.22,435.771 562.479,398.955 	"/>
</g>
<g>
	<path fill="#ED1C2E" d="M240.375,367.184c6.133,15.774,3.945,38.126-4.599,53.244c-10.518,17.534-29.363,15.78-54.781,15.78
		l12.706-83.704C211.886,352.941,231.171,349.437,240.375,367.184L240.375,367.184z M213.206,375.951l-6.136,39.878
		c10.301,0.656,12.492-14.463,13.146-28.263C220.653,382.955,218.685,376.608,213.206,375.951L213.206,375.951z"/>
</g>
<g>
	<path fill="#ED1C2E" d="M110.221,363.019c7.667,20.816,2.408,47.108-8.544,63.328c-9.641,13.806-23.224,15.337-36.593,9.204
		c-9.204-5.479-14.463-18.188-13.803-32.651c0.437-13.802,5.036-40.754,21.033-49.518
		C83.486,347.022,103.648,348.776,110.221,363.019L110.221,363.019z M80.635,374.417c-6.136,11.392-7.013,27.172-5.916,36.373
		c0.66,3.725,3.065,5.913,6.573,5.039c8.981-3.071,10.735-31.771,9.421-40.098C89.402,370.032,83.93,368.498,80.635,374.417
		L80.635,374.417z"/>
</g>
<g>
	<path fill="#ED1C2E" d="M177.05,363.019c7.667,20.816,2.411,47.108-8.544,63.328c-9.641,13.806-23.23,15.337-36.592,9.204
		c-9.204-5.479-14.463-18.188-13.803-32.651c0.44-13.802,5.039-40.754,21.036-49.518
		C150.315,347.022,170.474,348.776,177.05,363.019L177.05,363.019z M147.25,374.417c-6.133,11.392-7.013,27.172-5.916,36.373
		c0.66,3.725,3.071,5.913,6.573,5.039c8.987-3.071,10.741-31.771,9.424-40.098C156.011,370.032,150.539,368.498,147.25,374.417
		L147.25,374.417z"/>
</g>
</svg>
